<svg version="1.1" id="Layer_1" xmlns="http://www.w3.org/2000/svg" xmlns:xlink="http://www.w3.org/1999/xlink" x="0px" y="0px" viewBox="0 0 236.8 50" style="enable-background:new 0 0 236.8 50;" xml:space="preserve">
 <style type="text/css">
  .st0{fill:#ED3034;}
	.st1{fill:#231F20;}
 </style>
 <g>
  <path class="st0" d="M57.4,15.1h-6.2c0.1-2,0.6-4,3.1-4.1c1.1,0,1.9,0.5,2.4,1.3C57.2,13.1,57.4,14.1,57.4,15.1L57.4,15.1z
		 M63.8,18.7c0-6.7-2-11.1-9.5-11.1c-6,0-9.5,3.6-9.5,9.3c0,7,2.5,10.4,9.9,10.4c2.3,0,4.3-0.5,5.9-1.6c1.7-1.1,3-2.8,3.2-5.1h-6.3
		c-0.2,1.7-1.2,2.8-3.2,2.8c-2.6,0-3.1-2.4-3-4.7H63.8z M43.4,26.7c-0.2-1.8-0.3-3-0.3-4.1v-9c0-3.7-2.8-6.1-6.5-6.1
		c-1.1,0-2.2,0.2-3.2,0.6c-0.9,0.4-1.7,1-2.4,1.9V0h-6.7v26.7h6.7V15.5c0-0.6-0.3-3.8,2.8-3.8c2.1,0,2.6,1.8,2.6,3.6v11.4H43.4z
		 M122.1,11.5c2.8,0,3.3,2.8,3.3,5.8c0,3.4-0.6,6.1-3.3,6.1c-2.7,0-3.3-2.7-3.3-6.1C118.8,14.3,119.3,11.5,122.1,11.5L122.1,11.5z
		 M122.1,7.6c-6.2,0-10.2,3.4-10.2,9.8c0,6.6,4.1,9.9,10.2,9.9c6.1,0,10.2-3.3,10.2-9.9C132.3,11,128.3,7.6,122.1,7.6 M78.1,13.6
		V7.9c-2.9,0-5.1,0.9-6,3.7l-0.2-3.6h-6.7c0.2,1.5,0.2,3.6,0.2,4.8v13.8h6.7v-8.1c0-3.1,0.9-5,4.6-5C77.1,13.5,77.6,13.5,78.1,13.6
		 M110.6,26.7c-0.2-1.8-0.3-3.1-0.3-4.1v-9c0-3.7-2.8-6.1-6.5-6.1c-2.7,0-5,1.2-6.3,3.3c-0.8-2.1-3.1-3.2-5.3-3.2
		c-2.6,0-4.8,0.9-6.1,3.2l-0.2-2.8h-6.5v18.6h6.7V15.5c0-0.6-0.3-3.8,2.8-3.8c2.1,0,2.6,1.8,2.6,3.6v11.4h6.6V15.5
		c0-0.6-0.3-3.8,2.8-3.8c2.1,0,2.6,1.8,2.6,3.6v11.4H110.6z M22.8,5V0H0v5h7.8v21.7h7.1V5H22.8z">
  </path>
  <path class="st0" d="M162.6,4.9l1.6-4.9h-6.6l-1.6,4.9H162.6z M153.8,4.9l1.6-4.9h-18v26.7h7.1V16.2h5.7l1.6-4.9h-7.3V4.9H153.8z
		 M162.6,8.1h-6.7v18.6h6.7V8.1z M216.2,15.1H210c0.1-2,0.6-4,3.1-4.1c1.1,0,1.9,0.5,2.4,1.3C215.9,13.1,216.2,14.1,216.2,15.1
		L216.2,15.1z M222.5,18.7c0-6.7-2-11.1-9.5-11.1c-6,0-9.5,3.6-9.5,9.3c0,7,2.5,10.4,9.9,10.4c2.3,0,4.3-0.5,5.9-1.6
		c1.7-1.1,3-2.8,3.2-5.1h-6.3c-0.2,1.7-1.2,2.8-3.2,2.8c-2.5,0-3.1-2.4-3-4.7H222.5z M181.4,21.2c0-2.9-1.5-4.3-3.7-5.1
		c-4-1.4-7-1.5-7-3c0-1.1,0.6-1.7,1.7-1.7c0.9,0,1.4,0.2,1.8,0.6c0.3,0.4,0.5,1,0.5,1.8h6.3c-0.1-4.9-4.1-6.2-8.3-6.2
		c-3.6,0-8.4,1.3-8.4,5.7c0,6.5,10.7,4.8,10.7,8.3c0,1.2-1,1.8-2.3,1.8c-0.7,0-1.4-0.4-1.7-0.9c-0.4-0.5-0.5-1.2-0.4-1.8h-6.4
		c-0.1,5.5,4.1,6.5,8.7,6.5C177.2,27.2,181.4,25.7,181.4,21.2 M202.1,26.7c-0.2-1.8-0.3-3-0.3-4.1v-9c0-3.7-2.8-6.1-6.5-6.1
		c-1.1,0-2.1,0.2-3.1,0.6c-0.9,0.4-1.8,1-2.5,1.9V0h-6.7v26.7h6.7V15.5c0-0.6-0.3-3.8,2.8-3.8c2.1,0,2.6,1.8,2.6,3.6v11.4H202.1z
		 M236.8,13.3V7.6c-2.9,0-5.1,0.9-6,3.7l-0.1-3.2H224c0.1,1.5,0.1,3.6,0.1,4.8v13.8h6.7v-8.1c0-3.1,0.9-5.3,4.6-5.4
		C235.9,13.2,236.4,13.2,236.8,13.3">
  </path>
  <path class="st1" d="M42.4,49.9c-5.1,0-8.9-2.8-8.9-7.7c0-5,4.3-8,9.1-8c1.7,0,3.6,0.6,4.8,1.3L46.1,37c-1.1-0.6-2.3-1-3.5-1
		c-1.8,0-3.7,0.5-4.9,1.8c-1,1.1-1.6,2.5-1.6,4.4c0,2.1,0.7,3.3,1.8,4.4c1.2,1.1,3,1.5,4.7,1.5c1.4,0,2.8-0.5,3.9-1.1l1.2,1.4
		C46.5,49.4,44.4,49.9,42.4,49.9 M79.6,49.7V34.5h11.3l-0.3,1.8h-8.5v4.5h7.3v1.8h-7.3v5.1h9.1v1.9H79.6z M187.1,36.3h-8.4v4.5h7.1
		v1.8h-7.1v7.1h-2.5V34.5h11.2L187.1,36.3z M158,34.5h2.5v15.1H158V34.5z M115.9,49.7l-6.1-8.1c-1.1-1.5-3.1-4.5-3.1-4.5
		s0.2,2.6,0.2,4.8l0.1,7.7h-2.4V34.5h2.9l6.2,8.2c1.2,1.6,2.9,4.2,2.9,4.2s-0.4-2.8-0.4-4.8l-0.1-7.6h2.4v15.1H115.9z M17.5,49.1
		c-1.2,0.6-2.6,0.9-4.3,0.9c-2.2,0-4.4-0.5-6.2-1.4l1-1.7c1.8,0.9,3.5,1.3,5.4,1.3c1.2,0,2-0.2,2.8-0.6c0.9-0.5,1.4-1.1,1.4-2
		c0-1.3-1-2.1-3.4-2.6l-2.5-0.6c-2.5-0.6-4-2.1-4-3.9c0-2.6,2.6-4.4,6.2-4.4c2.1,0,4.4,0.5,5.9,1.4l-1.1,1.6
		c-1.5-0.8-3.1-1.2-4.7-1.2c-2.2,0-3.7,0.8-3.7,2.3c0,1.1,0.9,1.7,3.1,2.3l2.3,0.5c1.3,0.3,2.6,0.9,3.4,1.5c0.7,0.6,1.2,1.7,1.2,2.7
		C20.2,46.8,19.2,48.3,17.5,49.1 M145.1,36.4h-5.7v13.3H137V36.4h-5.7v-1.8h14.1L145.1,36.4z M200.5,34.5h2.5v15.1h-2.5V34.5z
		 M226.3,49.9c-5.1,0-9-2.8-9-7.7c0-5,4.3-8,9.1-8c1.7,0,3.6,0.6,4.8,1.3L230,37c-1.1-0.6-2.3-1-3.5-1c-1.8,0-3.6,0.5-4.9,1.8
		c-1,1.1-1.6,2.5-1.6,4.4c0,2.1,0.7,3.3,1.8,4.4c1.2,1.1,3,1.5,4.7,1.5c1.4,0,2.8-0.5,3.9-1.1l1.2,1.4
		C230.4,49.4,228.3,49.9,226.3,49.9 M61.3,34.5h2.5v15.1h-2.5V34.5z">
  </path>
 </g>
</svg>